<?xml version="1.0" standalone="no"?><!DOCTYPE svg PUBLIC "-//W3C//DTD SVG 1.1//EN" "http://www.w3.org/Graphics/SVG/1.1/DTD/svg11.dtd"><svg t="1653189638110" class="icon" viewBox="0 0 1024 1024" version="1.1" xmlns="http://www.w3.org/2000/svg" p-id="4039" xmlns:xlink="http://www.w3.org/1999/xlink" width="200" height="200"><defs><style type="text/css">@font-face { font-family: feedback-iconfont; src: url("//at.alicdn.com/t/font_1031158_u69w8yhxdu.woff2?t=1630033759944") format("woff2"), url("//at.alicdn.com/t/font_1031158_u69w8yhxdu.woff?t=1630033759944") format("woff"), url("//at.alicdn.com/t/font_1031158_u69w8yhxdu.ttf?t=1630033759944") format("truetype"); }
</style></defs><path d="M505.124571 149.796571c202.020571 0 365.714286 163.693714 365.714286 365.714286s-163.693714 365.714286-365.714286 365.714286-365.714286-163.693714-365.714285-365.714286 163.693714-365.714286 365.714285-365.714286z m1.755429 234.057143l-2.779429 0.146286c-9.069714-0.731429-18.285714 1.901714-25.6 8.192l-2.194285 2.048-165.741715 168.521143-1.901714 1.901714a35.84 35.84 0 0 0-1.609143 44.178286l1.755429 2.194286 1.024 1.024 1.024 1.024c13.165714 11.410286 32.621714 11.410286 45.641143 0l1.901714-1.755429 145.700571-148.041143 145.700572 148.041143c12.288 12.580571 31.890286 13.750857 45.494857 3.364571l2.048-1.609142 1.024-1.024 0.877714-1.024c11.264-13.312 11.264-33.060571 0-46.372572l-1.755428-1.901714-165.741715-168.667429c-6.875429-6.875429-15.798857-10.386286-24.868571-10.24z" p-id="4040" fill="#d4237a"></path></svg>