<?xml version="1.0" standalone="no"?><!DOCTYPE svg PUBLIC "-//W3C//DTD SVG 1.1//EN" "http://www.w3.org/Graphics/SVG/1.1/DTD/svg11.dtd"><svg t="1652610159146" class="icon" viewBox="0 0 1024 1024" version="1.1" xmlns="http://www.w3.org/2000/svg" p-id="3737" xmlns:xlink="http://www.w3.org/1999/xlink" width="200" height="200"><defs><style type="text/css">@font-face { font-family: feedback-iconfont; src: url("//at.alicdn.com/t/font_1031158_u69w8yhxdu.woff2?t=1630033759944") format("woff2"), url("//at.alicdn.com/t/font_1031158_u69w8yhxdu.woff?t=1630033759944") format("woff"), url("//at.alicdn.com/t/font_1031158_u69w8yhxdu.ttf?t=1630033759944") format("truetype"); }
</style></defs><path d="M396.8 490.666667c-51.2 0-93.866667-42.666667-93.866667-93.866667s42.666667-93.866667 93.866667-93.866667 93.866667 42.666667 93.866667 93.866667-42.666667 93.866667-93.866667 93.866667z m0-132.266667c-21.333333 0-38.4 17.066667-38.4 38.4s17.066667 38.4 38.4 38.4 38.4-17.066667 38.4-38.4-17.066667-38.4-38.4-38.4zM627.2 490.666667c-51.2 0-93.866667-42.666667-93.866667-93.866667s42.666667-93.866667 93.866667-93.866667 93.866667 42.666667 93.866667 93.866667-42.666667 93.866667-93.866667 93.866667z m0-132.266667c-21.333333 0-38.4 17.066667-38.4 38.4s17.066667 38.4 38.4 38.4 38.4-17.066667 38.4-38.4-17.066667-38.4-38.4-38.4zM396.8 721.066667c-51.2 0-93.866667-42.666667-93.866667-93.866667s42.666667-93.866667 93.866667-93.866667 93.866667 42.666667 93.866667 93.866667-42.666667 93.866667-93.866667 93.866667z m0-132.266667c-21.333333 0-38.4 17.066667-38.4 38.4s17.066667 38.4 38.4 38.4 38.4-17.066667 38.4-38.4-17.066667-38.4-38.4-38.4zM627.2 721.066667c-51.2 0-93.866667-42.666667-93.866667-93.866667s42.666667-93.866667 93.866667-93.866667 93.866667 42.666667 93.866667 93.866667-42.666667 93.866667-93.866667 93.866667z m0-132.266667c-21.333333 0-38.4 17.066667-38.4 38.4s17.066667 38.4 38.4 38.4 38.4-17.066667 38.4-38.4-17.066667-38.4-38.4-38.4z" p-id="3738"></path><path d="M512 938.666667C277.333333 938.666667 85.333333 746.666667 85.333333 512S277.333333 85.333333 512 85.333333s426.666667 192 426.666667 426.666667-192 426.666667-426.666667 426.666667z m0-789.333334c-200.533333 0-362.666667 162.133333-362.666667 362.666667s162.133333 362.666667 362.666667 362.666667 362.666667-162.133333 362.666667-362.666667-162.133333-362.666667-362.666667-362.666667z" p-id="3739"></path></svg>